<svg width="17" height="16" viewBox="0 0 17 16" fill="none" xmlns="http://www.w3.org/2000/svg">
<g opacity="0.48">
<g clip-path="url(#clip0_1_321)">
<g clip-path="url(#clip1_1_321)">
<path d="M10.3 4.2C10.178 4.325 10.109 4.492 10.109 4.667C10.109 4.841 10.178 5.009 10.3 5.133L11.367 6.2C11.491 6.322 11.659 6.391 11.833 6.391C12.008 6.391 12.175 6.322 12.3 6.2L14.813 3.687C15.149 4.427 15.25 5.253 15.104 6.053C14.959 6.853 14.572 7.589 13.998 8.164C13.423 8.739 12.686 9.125 11.886 9.271C11.086 9.417 10.261 9.315 9.52002 8.98L4.91302 13.587C4.64802 13.852 4.28802 14.001 3.91302 14.001C3.53802 14.001 3.17902 13.852 2.91302 13.587C2.64802 13.321 2.49902 12.962 2.49902 12.587C2.49902 12.212 2.64802 11.852 2.91302 11.587L7.52002 6.98C7.18502 6.239 7.08302 5.414 7.22902 4.614C7.37502 3.814 7.76102 3.077 8.33602 2.502C8.91102 1.928 9.64702 1.541 10.447 1.396C11.247 1.25 12.073 1.351 12.813 1.687L10.307 4.193L10.3 4.2Z" stroke="white" stroke-linecap="round" stroke-linejoin="round"/>
</g>
</g>
</g>
<defs>
<clipPath id="clip0_1_321">
<rect width="16" height="16" fill="white" transform="translate(0.5)"/>
</clipPath>
<clipPath id="clip1_1_321">
<rect width="16" height="16" fill="white" transform="translate(0.5)"/>
</clipPath>
</defs>
</svg>
