<svg width="17" height="16" viewBox="0 0 17 16" fill="none" xmlns="http://www.w3.org/2000/svg">
<g opacity="0.48">
<g clip-path="url(#clip0_1_338)">
<g clip-path="url(#clip1_1_338)">
<g clip-path="url(#clip2_1_338)">
<path d="M4.34001 13.217C5.11201 11.703 6.68501 10.667 8.50001 10.667C10.301 10.667 11.864 11.687 12.642 13.182M10.056 6.96301C10.056 7.86301 9.32601 8.59301 8.42601 8.59301C7.52601 8.59301 6.79601 7.86301 6.79601 6.96301C6.79601 6.06301 7.52601 5.33301 8.42601 5.33301C9.32601 5.33301 10.056 6.06301 10.056 6.96301ZM8.50001 14.667C4.81801 14.667 1.83301 11.682 1.83301 8.00001C1.83301 4.31801 4.81801 1.33301 8.50001 1.33301C12.182 1.33301 15.167 4.31801 15.167 8.00001C15.167 11.682 12.182 14.667 8.50001 14.667Z" stroke="white" stroke-linecap="round" stroke-linejoin="round"/>
</g>
</g>
</g>
</g>
<defs>
<clipPath id="clip0_1_338">
<rect width="16" height="16" fill="white" transform="translate(0.5)"/>
</clipPath>
<clipPath id="clip1_1_338">
<rect width="16" height="16" fill="white" transform="translate(0.5)"/>
</clipPath>
<clipPath id="clip2_1_338">
<rect width="16" height="16" fill="white" transform="translate(0.5)"/>
</clipPath>
</defs>
</svg>
